<svg width="32" height="32" viewBox="0 0 32 32" fill="none" xmlns="http://www.w3.org/2000/svg">
<g clip-path="url(#clip0_187_2348)">
<path d="M30.2708 16C30.2708 14.7669 30.1136 13.547 29.803 12.3649L31.6093 11.0361L28.1034 4.96387L26.0464 5.86513C24.2878 4.119 22.1343 2.87469 19.7533 2.22887L19.5058 0H12.4941L12.2465 2.22887C9.8655 2.87469 7.71206 4.119 5.95344 5.86513L3.89644 4.96387L0.390625 11.0361L2.19688 12.3649C1.88625 13.547 1.72913 14.7669 1.72913 16C1.72913 17.2331 1.88631 18.453 2.19688 19.6351L0.390625 20.9639L3.89644 27.0361L5.95344 26.1348C7.71213 27.881 9.86556 29.1253 12.2465 29.7711L12.4941 32H19.5058L19.7534 29.7711C22.1344 29.1253 24.2878 27.8809 26.0464 26.1348L28.1034 27.0361L31.6093 20.9639L29.803 19.6351C30.1136 18.453 30.2708 17.2331 30.2708 16ZM18.6913 28.1021L18.0362 28.2471L17.8275 30.125H14.1724L13.9637 28.2471L13.3086 28.1021C10.8249 27.5524 8.59725 26.2653 6.8665 24.3799L6.41338 23.8862L4.68113 24.6452L2.85356 21.4797L4.37388 20.3614L4.17288 19.7221C3.7955 18.5217 3.60413 17.2694 3.60413 16C3.60413 14.7306 3.7955 13.4782 4.17288 12.2779L4.37388 11.6386L2.85356 10.5203L4.68113 7.35481L6.41338 8.11375L6.8665 7.62012C8.59725 5.73475 10.8249 4.44763 13.3086 3.89794L13.9637 3.75294L14.1724 1.875H17.8275L18.0362 3.75294L18.6913 3.89794C21.1749 4.44769 23.4026 5.73481 25.1334 7.62012L25.5865 8.11375L27.3188 7.35481L29.1463 10.5203L27.626 11.6386L27.827 12.2779C28.2044 13.4783 28.3958 14.7306 28.3958 16C28.3958 17.2694 28.2044 18.5217 27.827 19.7221L27.626 20.3614L29.1463 21.4797L27.3188 24.6452L25.5865 23.8862L25.1334 24.3799C23.4026 26.2653 21.175 27.5524 18.6913 28.1021Z" fill="white"/>
<path d="M12.2763 13.8537L10.9367 12.5419L7.50781 16.0431L11.0091 19.472L12.3209 18.1324L10.1593 16.0154L12.2763 13.8537Z" fill="white"/>
<path d="M19.7243 13.8537L21.8413 16.0154L19.6797 18.1324L20.9916 19.472L24.4928 16.0431L21.0639 12.5419L19.7243 13.8537Z" fill="white"/>
<path d="M13.7578 22.136L16.4243 9.46353L18.26 9.84979L15.5935 22.5223L13.7578 22.136Z" fill="white"/>
</g>
<defs>
<clipPath id="clip0_187_2348">
<rect width="32" height="32" fill="white"/>
</clipPath>
</defs>
</svg>
