<svg width="28" height="28" viewBox="0 0 28 28" fill="none" xmlns="http://www.w3.org/2000/svg">
<path d="M25.6693 6H19.3296C19.7499 5.442 20.0026 4.75066 20.0026 4C20.0026 2.162 18.5073 0.666664 16.6693 0.666664C15.5783 0.666664 14.6113 1.196 14.0026 2.00866C13.3943 1.196 12.4269 0.666664 11.3359 0.666664C9.49794 0.666664 8.0026 2.162 8.0026 4C8.0026 4.75066 8.25527 5.442 8.6756 6H2.33594C1.23294 6 0.335938 6.897 0.335938 8V10.6667C0.335938 11.5357 0.893604 12.2747 1.66927 12.55V25.3333C1.66927 26.4363 2.56627 27.3333 3.66927 27.3333H24.3359C25.4389 27.3333 26.3359 26.4363 26.3359 25.3333V12.55C27.1116 12.2747 27.6693 11.5357 27.6693 10.6667V8C27.6693 6.897 26.7723 6 25.6693 6ZM12.0026 11.3333V7.33333H16.0026V11.3333H12.0026ZM16.0026 12.6667V26H12.0026V12.6667H16.0026ZM16.6693 2C17.7723 2 18.6693 2.897 18.6693 4C18.6693 5.103 17.7723 6 16.6693 6H14.6693V4C14.6693 2.897 15.5663 2 16.6693 2ZM9.33594 4C9.33594 2.897 10.2329 2 11.3359 2C12.4389 2 13.3359 2.897 13.3359 4V6H11.3359C10.2329 6 9.33594 5.103 9.33594 4ZM1.66927 8C1.66927 7.63233 1.96827 7.33333 2.33594 7.33333H10.6693V11.3333H2.33594C1.96827 11.3333 1.66927 11.0343 1.66927 10.6667V8ZM3.0026 25.3333V12.6667H10.6693V26H3.66927C3.3016 26 3.0026 25.701 3.0026 25.3333ZM24.3359 26H17.3359V12.6667H25.0026V25.3333C25.0026 25.701 24.7036 26 24.3359 26ZM26.3359 10.6667C26.3359 11.0343 26.0369 11.3333 25.6693 11.3333H17.3359V7.33333H25.6693C26.0369 7.33333 26.3359 7.63233 26.3359 8V10.6667Z" fill="white"/>
</svg>
