<svg width="30" height="30" viewBox="0 0 30 30" fill="none" xmlns="http://www.w3.org/2000/svg">
<g clip-path="url(#clip0_187_2315)">
<path d="M25.625 6.25C23.9013 6.25 22.5 4.84875 22.5 3.125C22.5 1.40125 23.9013 0 25.625 0C27.3488 0 28.75 1.40125 28.75 3.125C28.75 4.84875 27.3488 6.25 25.625 6.25ZM25.625 1.25C24.5913 1.25 23.75 2.09125 23.75 3.125C23.75 4.15875 24.5913 5 25.625 5C26.6588 5 27.5 4.15875 27.5 3.125C27.5 2.09125 26.6588 1.25 25.625 1.25Z" fill="white"/>
<path d="M29.3753 7.5C29.2153 7.5 29.0553 7.43875 28.9328 7.3175L27.0578 5.4425C26.8141 5.19875 26.8141 4.8025 27.0578 4.55875C27.3016 4.315 27.6978 4.315 27.9416 4.55875L29.8166 6.43375C30.0603 6.6775 30.0603 7.07375 29.8166 7.3175C29.6953 7.43875 29.5353 7.5 29.3753 7.5Z" fill="white"/>
<path d="M18.125 7.5H1.875C0.84125 7.5 0 6.65875 0 5.625V1.875C0 0.84125 0.84125 0 1.875 0H18.125C19.1588 0 20 0.84125 20 1.875V5.625C20 6.65875 19.1588 7.5 18.125 7.5ZM1.875 1.25C1.53125 1.25 1.25 1.53125 1.25 1.875V5.625C1.25 5.96875 1.53125 6.25 1.875 6.25H18.125C18.4688 6.25 18.75 5.96875 18.75 5.625V1.875C18.75 1.53125 18.4688 1.25 18.125 1.25H1.875Z" fill="white"/>
<path d="M3.75 30C1.6825 30 0 28.3175 0 26.25C0 24.1825 1.6825 22.5 3.75 22.5C5.8175 22.5 7.5 24.1825 7.5 26.25C7.5 28.3175 5.8175 30 3.75 30ZM3.75 23.75C2.37125 23.75 1.25 24.8712 1.25 26.25C1.25 27.6287 2.37125 28.75 3.75 28.75C5.12875 28.75 6.25 27.6287 6.25 26.25C6.25 24.8712 5.12875 23.75 3.75 23.75Z" fill="white"/>
<path d="M6.875 16.25H0.625C0.28 16.25 0 15.97 0 15.625C0 15.28 0.28 15 0.625 15H6.875C7.22 15 7.5 15.28 7.5 15.625C7.5 15.97 7.22 16.25 6.875 16.25Z" fill="white"/>
<path d="M6.875 20H0.625C0.28 20 0 19.72 0 19.375C0 19.03 0.28 18.75 0.625 18.75H6.875C7.22 18.75 7.5 19.03 7.5 19.375C7.5 19.72 7.22 20 6.875 20Z" fill="white"/>
<path d="M6.875 12.5H0.625C0.28 12.5 0 12.22 0 11.875C0 11.53 0.28 11.25 0.625 11.25H6.875C7.22 11.25 7.5 11.53 7.5 11.875C7.5 12.22 7.22 12.5 6.875 12.5Z" fill="white"/>
<path d="M28.125 30H11.875C10.8412 30 10 29.1588 10 28.125V11.875C10 10.8412 10.8412 10 11.875 10H28.125C29.1588 10 30 10.8412 30 11.875V28.125C30 29.1588 29.1588 30 28.125 30ZM11.875 11.25C11.5312 11.25 11.25 11.5312 11.25 11.875V28.125C11.25 28.4688 11.5312 28.75 11.875 28.75H28.125C28.4688 28.75 28.75 28.4688 28.75 28.125V11.875C28.75 11.5312 28.4688 11.25 28.125 11.25H11.875Z" fill="white"/>
<path d="M20 18.75C18.9662 18.75 18.125 17.9088 18.125 16.875C18.125 15.8412 18.9662 15 20 15C21.0338 15 21.875 15.8412 21.875 16.875C21.875 17.9088 21.0338 18.75 20 18.75ZM20 16.25C19.6562 16.25 19.375 16.5312 19.375 16.875C19.375 17.2188 19.6562 17.5 20 17.5C20.3438 17.5 20.625 17.2188 20.625 16.875C20.625 16.5312 20.3438 16.25 20 16.25Z" fill="white"/>
<path d="M23.125 23.75C22.78 23.75 22.5 23.47 22.5 23.125V22.5C22.5 21.81 21.94 21.25 21.25 21.25H18.75C18.06 21.25 17.5 21.81 17.5 22.5V23.125C17.5 23.47 17.22 23.75 16.875 23.75C16.53 23.75 16.25 23.47 16.25 23.125V22.5C16.25 21.1212 17.3712 20 18.75 20H21.25C22.6287 20 23.75 21.1212 23.75 22.5V23.125C23.75 23.47 23.47 23.75 23.125 23.75Z" fill="white"/>
</g>
<defs>
<clipPath id="clip0_187_2315">
<rect width="30" height="30" fill="white"/>
</clipPath>
</defs>
</svg>
