<svg width="31" height="31" viewBox="0 0 31 31" fill="none" xmlns="http://www.w3.org/2000/svg">
<g clip-path="url(#clip0_187_2295)">
<path d="M15.5 0C6.93958 0 0 6.93958 0 15.5C0 24.0604 6.93958 31 15.5 31C24.0604 31 31 24.0604 31 15.5C30.9906 6.94352 24.0565 0.00944424 15.5 0ZM15.5 29.8552C7.57185 29.8552 1.14476 23.4282 1.14476 15.5C1.14476 7.57185 7.57185 1.14476 15.5 1.14476C23.4282 1.14476 29.8552 7.57185 29.8552 15.5C29.8458 23.4243 23.4243 29.8458 15.5 29.8552Z" fill="white"/>
<path d="M18.3317 17.4919C18.0365 17.0725 17.6817 16.6985 17.2786 16.3815C16.7062 15.8949 16.3112 15.5687 15.985 12.6953C15.8476 11.4934 15.5843 10.2685 14.6742 10.2685C13.7642 10.2685 13.2089 11.5735 12.814 12.6839C12.7671 12.7675 12.7094 12.8445 12.6423 12.9128C12.5061 12.7419 12.4015 12.5481 12.3332 12.3405L12.213 12.0543L11.9096 11.997C11.6999 11.9608 11.4872 11.9436 11.2743 11.9455C10.2426 11.9261 9.26226 12.395 8.62992 13.2105C8.4484 13.3227 8.23605 13.3748 8.0232 13.3593C7.9304 13.3217 7.83138 13.3024 7.73129 13.3021C7.15891 13.3021 6.97575 13.8287 6.8441 14.1721C6.61515 14.7445 6.47778 14.962 6.09428 14.962C5.19887 14.9268 4.34324 15.3332 3.80477 16.0495C3.36168 16.7411 3.29085 17.6076 3.61589 18.3619L3.74181 18.6881C4.20136 19.7018 4.45063 20.798 4.47445 21.9106C4.4487 22.6657 5.03996 23.2987 5.79507 23.3244C5.82613 23.3255 5.85718 23.3255 5.88823 23.3244C7.03299 23.3244 8.52689 22.2598 9.4198 21.2066C9.6358 20.9052 9.9768 20.7179 10.3471 20.6972C10.9181 20.7712 11.4252 21.0994 11.7265 21.5901C12.0527 22.2884 13.9588 23.6621 15.4813 23.6621C15.8359 23.6662 16.1867 23.5878 16.5058 23.4332C17.6339 22.7636 18.4416 21.6647 18.7438 20.3881C19.037 19.4089 18.8864 18.3504 18.3317 17.4919ZM17.6277 20.079L17.622 20.1019C17.393 21.0496 16.8037 21.8709 15.9793 22.3914C15.8183 22.4672 15.6419 22.5045 15.4641 22.5002C14.4187 22.3669 13.4549 21.8657 12.7453 21.0864C12.2565 20.2026 11.3544 19.6256 10.3471 19.5524C9.63881 19.5696 8.97707 19.9089 8.54979 20.474C7.65115 21.5329 6.47205 22.1911 5.89395 22.1911C5.75086 22.1911 5.64783 22.1911 5.62493 21.8477C5.59167 20.6196 5.31742 19.4099 4.81788 18.2875L4.69196 17.9612C4.49384 17.5515 4.51538 17.0695 4.7492 16.6791C5.0776 16.2839 5.576 16.0709 6.08856 16.1067C6.96831 16.0635 7.7109 15.4381 7.903 14.5785V14.5041C8.40168 14.5196 8.89314 14.3817 9.31105 14.1091L9.39691 14.0519L9.45987 13.966C9.88221 13.4059 10.5569 13.0944 11.2571 13.1361H11.3945C11.5948 13.6637 12.0752 14.0335 12.6366 14.0919C13.3692 14.0919 13.7813 13.3078 13.8557 13.1532V13.096C14.0336 12.5648 14.2758 12.0574 14.5769 11.5849C14.7011 11.9912 14.7817 12.4094 14.8173 12.8327C15.1779 15.998 15.6988 16.5818 16.5345 17.2629C16.8551 17.5161 17.1366 17.815 17.3701 18.1501C17.7261 18.7273 17.8197 19.4287 17.6277 20.079Z" fill="white"/>
<path d="M13.4104 24.0857L13.313 23.9025L13.1013 23.8224C12.805 23.7188 12.4936 23.6646 12.1797 23.6621C11.7526 23.6512 11.3394 23.8144 11.035 24.1143C10.7044 24.4936 10.5468 24.9934 10.6 25.4937C10.64 26.4954 11.2582 26.8503 11.7447 26.8503C12.3836 26.7984 12.9566 26.4371 13.2787 25.8829C13.6415 25.3507 13.6917 24.6651 13.4104 24.0857ZM12.3114 25.2705C12.1857 25.4844 11.9796 25.639 11.739 25.6998C11.7079 25.6175 11.6924 25.5301 11.6932 25.4422C11.6637 25.253 11.7045 25.0596 11.8077 24.8985C11.9064 24.8252 12.0286 24.7906 12.1511 24.8012C12.2387 24.7936 12.3268 24.7936 12.4144 24.8012C12.4287 24.9651 12.3907 25.1295 12.3057 25.2705H12.3114Z" fill="white"/>
<path d="M18.7895 7.6298C18.509 6.86281 17.4444 6.50794 16.7403 6.34195C16.6947 6.00017 16.5561 5.67742 16.3397 5.40897C15.8245 4.76791 14.9087 4.43021 13.6094 4.41876C12.9158 3.81118 12.0446 3.44386 11.1253 3.37131C10.3413 3.37596 9.60959 3.76539 9.16779 4.41304C8.7131 4.88489 8.5786 5.58004 8.82436 6.18741C9.25364 7.08604 10.6102 7.33216 11.2799 7.40085C11.6867 8.15303 12.443 8.6515 13.2946 8.72877C13.6285 8.72512 13.9564 8.64069 14.2505 8.48264C14.7885 8.95772 15.8532 9.76477 16.9292 9.76477C17.4943 9.76921 18.0326 9.52416 18.4002 9.09509C18.8082 8.72648 18.9607 8.15224 18.7895 7.6298ZM17.5531 8.34527V8.3281C17.4037 8.51248 17.1779 8.61801 16.9407 8.61429C16.1336 8.61429 15.0805 7.70993 14.7485 7.36078C14.5471 7.15387 14.2232 7.12933 13.9929 7.30355C13.803 7.46954 13.5636 7.56813 13.3118 7.58401C12.6478 7.58401 12.167 6.61669 12.167 6.61097C12.076 6.41944 11.8867 6.29387 11.6748 6.28471C10.9422 6.25037 10.0206 6.00425 9.87754 5.71233C9.82602 5.59786 9.91188 5.37463 10.1065 5.13996C10.3329 4.7863 10.7226 4.57101 11.1425 4.56758C11.8477 4.65694 12.5056 4.96989 13.0199 5.46049C13.1284 5.56201 13.272 5.61746 13.4206 5.61503H13.5293C14.4737 5.61503 15.1549 5.80964 15.4468 6.18741C15.5785 6.34746 15.6403 6.55366 15.6185 6.75979C15.5728 7.06143 15.7717 7.34597 16.0707 7.40657C16.809 7.50388 17.6218 7.81869 17.7019 8.03619C17.7306 8.05908 17.7191 8.15639 17.5531 8.34527Z" fill="white"/>
<path d="M26.8405 20.0504C26.5314 19.0945 26.0277 18.9056 25.6614 18.9056C25.1095 18.9836 24.634 19.3344 24.3965 19.8386C23.9974 20.3262 23.5549 20.7764 23.0743 21.1837H22.0497C21.7336 21.1821 21.476 21.4371 21.4745 21.7532C21.4744 21.7733 21.4753 21.7934 21.4773 21.8133L21.5918 22.9237L20.5959 23.9254C20.4859 24.0362 20.4259 24.1871 20.4299 24.3432C20.4633 25.1834 21.1715 25.8375 22.0116 25.8041C22.0205 25.8037 22.0294 25.8033 22.0383 25.8028C22.3314 25.7979 22.6224 25.7516 22.9025 25.6654C22.9686 25.6462 23.0307 25.6151 23.0857 25.5739C23.8298 25.0015 27.5045 22.0995 26.8405 20.0504ZM22.479 24.6008C22.3352 24.6396 22.1871 24.6607 22.0383 24.6638C21.8804 24.6819 21.7245 24.6169 21.6261 24.4921L22.5992 23.5133C22.7216 23.3917 22.7826 23.2213 22.7652 23.0497L22.685 22.2998H23.2918C23.4309 22.2996 23.5652 22.2488 23.6695 22.1568C24.2971 21.6401 24.8706 21.0609 25.3809 20.4282L25.3752 20.411C25.4437 20.2976 25.5243 20.1921 25.6156 20.0962C25.6711 20.1959 25.7152 20.3015 25.7473 20.411C26.0449 21.3325 24.0301 23.4274 22.479 24.6008Z" fill="white"/>
</g>
<defs>
<clipPath id="clip0_187_2295">
<rect width="31" height="31" fill="white"/>
</clipPath>
</defs>
</svg>
